<svg id="color" enable-background="new 0 0 24 24" height="512" viewBox="0 0 24 24" width="512" xmlns="http://www.w3.org/2000/svg"><path d="m17 10.75c-.553 0-1-.448-1-1v-3.75c0-2.206-1.794-4-4-4s-4 1.794-4 4v3.75c0 .552-.447 1-1 1s-1-.448-1-1v-3.75c0-3.309 2.691-6 6-6s6 2.691 6 6v3.75c0 .552-.447 1-1 1z" fill="#90a4ae"/><path d="m18.75 24h-13.5c-1.24 0-2.25-1.009-2.25-2.25v-10.5c0-1.241 1.01-2.25 2.25-2.25h13.5c1.24 0 2.25 1.009 2.25 2.25v10.5c0 1.241-1.01 2.25-2.25 2.25z" fill="#607d8b"/><path d="m14 15c0-1.103-.897-2-2-2s-2 .897-2 2c0 .737.405 1.375 1 1.722v2.278c0 .552.447 1 1 1s1-.448 1-1v-2.278c.595-.347 1-.985 1-1.722z" fill="#fff"/><path d="m12 0c-3.309 0-6 2.691-6 6v3h2v-3c0-2.206 1.794-4 4-4z" fill="#7d8f97"/><path d="m12 9h-4-2-.75c-1.24 0-2.25 1.009-2.25 2.25v10.5c0 1.241 1.01 2.25 2.25 2.25h6.75v-4c-.553 0-1-.448-1-1v-2.278c-.595-.347-1-.985-1-1.722 0-1.103.897-2 2-2z" fill="#546d79"/><path d="m12 13c-1.103 0-2 .897-2 2 0 .737.405 1.375 1 1.722v2.278c0 .552.447 1 1 1z" fill="#dedede"/></svg>